<?xml version="1.0" standalone="no"?><!DOCTYPE svg PUBLIC "-//W3C//DTD SVG 1.1//EN" "http://www.w3.org/Graphics/SVG/1.1/DTD/svg11.dtd"><svg t="1635153367587" class="icon" viewBox="0 0 1024 1024" version="1.1" xmlns="http://www.w3.org/2000/svg" p-id="21584" width="20" height="20" xmlns:xlink="http://www.w3.org/1999/xlink"><defs><style type="text/css"></style></defs><path d="M864 96h-704a128 128 0 0 0-128 128v576a128 128 0 0 0 128 128h704a128 128 0 0 0 128-128v-576a128 128 0 0 0-128-128z m64 704a64 64 0 0 1-64 64h-704a64 64 0 0 1-64-64v-448h832v448z m0-512h-832v-64a64 64 0 0 1 64-64h704a64 64 0 0 1 64 64v64z" p-id="21585"></path><path d="M288 640a32 32 0 0 0 32-32V576a32 32 0 0 0-64 0v32a32 32 0 0 0 32 32zM384 640a32 32 0 0 0 32-32V576a32 32 0 0 0-64 0v32a32 32 0 0 0 32 32zM480 640a32 32 0 0 0 32-32V576a32 32 0 0 0-64 0v32a32 32 0 0 0 32 32zM576 640a32 32 0 0 0 32-32V576a32 32 0 0 0-64 0v32a32 32 0 0 0 32 32zM736 640a32 32 0 0 0 32-32V576a32 32 0 0 0-64 0v32a32 32 0 0 0 32 32zM832 640a32 32 0 0 0 32-32V576a32 32 0 0 0-64 0v32a32 32 0 0 0 32 32z" p-id="21586"></path></svg>
