<?xml version="1.0" standalone="no"?><!DOCTYPE svg PUBLIC "-//W3C//DTD SVG 1.1//EN" "http://www.w3.org/Graphics/SVG/1.1/DTD/svg11.dtd"><svg t="1635151982060" class="icon" viewBox="0 0 1024 1024" version="1.1" xmlns="http://www.w3.org/2000/svg" p-id="20815" width="20" height="20" xmlns:xlink="http://www.w3.org/1999/xlink"><defs><style type="text/css"></style></defs><path d="M343.97 64.09m8 0l40 0q8 0 8 8l0 104q0 8-8 8l-40 0q-8 0-8-8l0-104q0-8 8-8Z" p-id="20816"></path><path d="M623.97 64.09m8 0l40 0q8 0 8 8l0 104q0 8-8 8l-40 0q-8 0-8-8l0-104q0-8 8-8Z" p-id="20817"></path><path d="M455.97 120.09m8 0l96 0q8 0 8 8l0 48q0 8-8 8l-96 0q-8 0-8-8l0-48q0-8 8-8Z" p-id="20818"></path><path d="M832 120.09h-88a8 8 0 0 0-8 8v48a8 8 0 0 0 8 8h56v712H224v-712h56a8 8 0 0 0 8-8v-48a8 8 0 0 0-8-8h-88a32 32 0 0 0-32 32v776a32 32 0 0 0 32 32h640a32 32 0 0 0 32-32v-776a32 32 0 0 0-32-32z" p-id="20819"></path><path d="M376.88 371.73l74 140.37H400a16 16 0 0 0-16 16v24a16 16 0 0 0 16 16h80v48h-80a16 16 0 0 0-16 16v24a16 16 0 0 0 16 16h80v64a16 16 0 0 0 16 16h32a16 16 0 0 0 16-16v-64h80a16 16 0 0 0 16-16v-24a16 16 0 0 0-16-16h-80v-48h80a16 16 0 0 0 16-16v-24a16 16 0 0 0-16-16h-51l74-140.37a8 8 0 0 0-7.38-11.63H589a16.63 16.63 0 0 0-14.75 8.74L512 486.94l-62.31-118.11a16.63 16.63 0 0 0-14.75-8.74h-50.68a8 8 0 0 0-7.38 11.64z" p-id="20820"></path></svg>
