<?xml version="1.0" standalone="no"?><!DOCTYPE svg PUBLIC "-//W3C//DTD SVG 1.1//EN" "http://www.w3.org/Graphics/SVG/1.1/DTD/svg11.dtd"><svg t="1635157714322" class="icon" viewBox="0 0 1024 1024" version="1.1" xmlns="http://www.w3.org/2000/svg" p-id="2056" width="20" height="20" xmlns:xlink="http://www.w3.org/1999/xlink"><defs><style type="text/css"></style></defs><path d="M507.44888889 248.03555555h-72.02133334c-3.75466667 0-6.82666667 3.072-6.82666666 6.82666667v387.072H422.11555555L154.05511111 250.99377778c-1.25155555-1.82044445-3.41333333-2.95822222-5.57511111-2.95822223H72.81777778c-3.75466667 0-6.82666667 3.072-6.82666667 6.82666667v527.92888889c0 3.75466667 3.072 6.82666667 6.82666667 6.82666667h71.33866667c3.75466667 0 6.82666667-3.072 6.82666666-6.82666667V390.37155555h6.48533334l271.01866666 396.288c1.25155555 1.82044445 3.41333333 2.95822222 5.68888889 2.95822223H507.44888889c3.75466667 0 6.82666667-3.072 6.82666666-6.82666667V254.86222222c0-3.75466667-3.072-6.82666667-6.82666666-6.82666667z m430.08 469.90222223H591.64444445c-5.00622222 0-9.10222222 4.096-9.10222223 9.10222222v54.61333333c0 5.00622222 4.096 9.10222222 9.10222223 9.10222222h345.88444444c5.00622222 0 9.10222222-4.096 9.10222222-9.10222222v-54.61333333c0-5.00622222-4.096-9.10222222-9.10222222-9.10222222z m-173.16977778-71.68c60.18844445 0 108.31644445-19.56977778 143.58755556-58.82311111 33.45066667-37.43288889 50.06222222-86.24355555 50.06222222-146.54577778 0-60.416-16.61155555-109.79555555-50.06222222-147.11466667-35.15733333-39.59466667-83.28533333-59.392-143.58755556-59.392-61.09866667 0-109.11288889 19.91111111-143.70133333 60.07466667-33.22311111 37.66044445-49.37955555 86.35733333-49.37955556 146.432 0 59.61955555 16.27022222 108.31644445 49.49333333 145.97688889 34.816 39.48088889 83.05777778 59.392 143.58755556 59.392z m-81.35111111-300.032c19.22844445-23.43822222 45.85244445-35.15733333 81.23733333-35.15733333 35.84 0 62.35022222 10.92266667 80.78222222 33.10933333 18.65955555 23.09688889 28.33066667 55.296 28.33066667 96.59733333 0 41.30133333-9.55733333 72.93155555-28.21688889 95.45955556-18.77333333 22.07288889-45.51111111 33.22311111-80.896 33.22311111-35.49866667 0-62.57777778-11.71911111-81.23733333-34.58844445-18.54577778-22.86933333-27.87555555-53.81688889-27.87555555-93.98044444 0.11377778-40.73244445 9.32977778-71.68 27.87555555-94.66311111z" p-id="2057" ></path></svg>
