<?xml version="1.0" standalone="no"?><!DOCTYPE svg PUBLIC "-//W3C//DTD SVG 1.1//EN" "http://www.w3.org/Graphics/SVG/1.1/DTD/svg11.dtd"><svg t="1635143745556" class="icon" viewBox="0 0 1024 1024" version="1.1" xmlns="http://www.w3.org/2000/svg" p-id="1670" width="20" height="20" xmlns:xlink="http://www.w3.org/1999/xlink"><defs><style type="text/css"></style></defs><path d="M484.84 209c2.52 1.24 4.55 3.28 5.8 5.8l26.06 52.8 58.27 8.47c6.97 1.01 11.81 7.49 10.79 14.46-0.4 2.78-1.71 5.34-3.72 7.3l-42.17 41.1 9.95 58.04c1.19 6.95-3.47 13.54-10.42 14.73-2.77 0.47-5.61 0.02-8.1-1.28l-52.12-27.4-52.12 27.4c-6.24 3.28-13.95 0.88-17.23-5.36a12.702 12.702 0 0 1-1.28-8.1l9.95-58.04-42.17-41.1c-5.05-4.92-5.15-13-0.23-18.05 1.96-2.01 4.53-3.32 7.3-3.72l58.27-8.47 26.06-52.8c3.14-6.3 10.79-8.9 17.11-5.78z m90.06 301.64c17.62 0 31.9 14.28 31.9 31.9s-14.28 31.9-31.9 31.9H255.87c-17.62 0-31.9-14.28-31.9-31.9s14.28-31.9 31.9-31.9H574.9zM383.48 638.25c17.62 0 31.9 14.28 31.9 31.9s-14.28 31.9-31.9 31.9H255.87c-17.62 0-31.9-14.28-31.9-31.9s14.28-31.9 31.9-31.9h127.61zM830.12 64c17.62 0 31.9 14.28 31.9 31.9v446.64c0 17.62-14.28 31.9-31.9 31.9-17.62 0-31.9-14.28-31.9-31.9V127.81H160.16v765.67h350.93c17.62 0 31.9 14.28 31.9 31.9 0 17.62-14.28 31.9-31.9 31.9H128.26c-17.62 0-31.9-14.28-31.9-31.9V95.9c0-17.62 14.28-31.9 31.9-31.9h701.86z m-47.06 570.83l135.35 135.35c5.54 5.54 8.61 12.6 9.23 19.84v5.44c-0.62 7.24-3.69 14.3-9.23 19.84L783.06 950.66c-12.46 12.46-32.66 12.46-45.12 0s-12.46-32.66 0-45.12l82.76-82.76-243.99 0.06c-17.62 0-31.9-14.28-31.9-31.9 0-17.62 14.28-31.9 31.9-31.9l240.36-0.06-79.12-79.02c-12.46-12.46-12.46-32.66 0-45.12 12.45-12.46 32.65-12.46 45.11-0.01z" p-id="1671"></path></svg>