<?xml version="1.0" standalone="no"?><!DOCTYPE svg PUBLIC "-//W3C//DTD SVG 1.1//EN" "http://www.w3.org/Graphics/SVG/1.1/DTD/svg11.dtd"><svg t="1629178125049" class="icon" viewBox="0 0 1024 1024" version="1.1" xmlns="http://www.w3.org/2000/svg" p-id="25712" width="20" height="20" xmlns:xlink="http://www.w3.org/1999/xlink"><defs><style type="text/css"></style></defs><path d="M103.190409 1023.990654h817.50928a83.749135 83.749135 0 0 0 84.936699-84.936699V206.533008a83.800768 83.800768 0 0 0-84.936699-84.936699h-53.078983C856.984256 47.296059 803.905273 0 729.55339 0H294.336708C220.036459 0 166.905842 47.296059 156.372659 121.596309H103.293676C53.467588 123.300206 18.356976 153.402392 18.356976 206.533008v732.520947a83.594235 83.594235 0 0 0 84.833433 84.936699z m839.711578-78.069477c0 10.32665-22.202298 16.367741-22.202298 16.367741H93.018659c-10.32665 0-14.973643-16.367741-14.973643-16.367741V370.57185H932.265537l12.082181 0.413066-1.445731 574.936261zM98.853216 185.311742h56.796577l1.394098 42.442533c0 21.2729 17.813472 40.996802 35.213878 40.996802 21.2729 0 38.156973-19.723902 38.156973-40.996802v-113.593155c0-31.806083 21.221267-53.02735 53.02735-53.02735H741.222505c31.806083 0 52.046318 21.221267 52.046318 63.715433l2.891462 107.603698a37.79554 37.79554 0 0 0 38.002073 38.311873c23.751296-0.413066 31.806083-21.634333 31.806084-42.907233l1.394097-42.442533h61.391937a10.32665 10.32665 0 0 1 10.584817 10.32665v106.416133H90.02393c-10.584817 0-10.584817 0-10.584817-10.688083V196.206358a10.32665 10.32665 0 0 1 10.584817-10.326651h8.829286z" p-id="25713" ></path><path d="M349.687555 180.974548h316.150402c20.033702 0 42.494166-9.552152 43.371931-29.585853 1.394098-29.998919-23.854562-36.143276-41.306601-36.143276H349.687555c-21.221267 0-39.344538 12.495247-39.551072 33.716513 0 18.794504 18.329804 31.90935 39.551072 31.90935zM699.915903 461.291474c0-4.44046-5.163325-11.978914-12.495247-18.123272-10.688083-8.674386-26.591125-14.302411-40.583736-3.149628 0 0-51.633252 64.748098-74.248616 95.521516-19.20757 25.816626-33.303448 42.494166-54.576348 74.30025L413.506254 461.188207a37.898807 37.898807 0 0 0-55.24758-14.818743c-17.038973 12.288714-18.536337 30.308719-8.364586 46.469927 12.598513 20.136968 27.46889 42.339267 43.888264 63.715433 17.193873 22.305565 28.759721 37.537374 49.722821 65.109531h-72.286552c-21.634333-1.135932-31.90935 8.57112-31.806084 22.615364 0 21.2729 10.32665 29.017888 42.494167 29.017888h95.521516v31.806083H370.908821a31.702817 31.702817 0 0 0-31.806083 31.289751c0 21.531066 10.32665 32.322416 42.494166 32.322415h95.521517v74.248617c0 10.584817 10.32665 42.494166 40.945168 42.494166 28.604822 0 40.996802-21.221267 40.996803-42.494166V769.335455h98.412978c32.425682 0 42.907232-9.603785 42.494166-31.59955-0.413066-23.080064-19.620636-32.528949-42.700699-32.528949h-98.103179v-31.806083h98.412978c31.806083 0 42.494166-4.853526 42.494167-25.816626s-10.32665-25.816626-42.494167-25.816626l-63.405633-2.168597 95.10845-127.0178c11.204416-15.025276 10.79135-20.653301 10.79135-31.496283z" p-id="25714" ></path></svg>
