<?xml version="1.0" standalone="no"?><!DOCTYPE svg PUBLIC "-//W3C//DTD SVG 1.1//EN" "http://www.w3.org/Graphics/SVG/1.1/DTD/svg11.dtd"><svg t="1629184518924" class="icon" viewBox="0 0 1024 1024" version="1.1" xmlns="http://www.w3.org/2000/svg" p-id="24636" width="20" height="20" xmlns:xlink="http://www.w3.org/1999/xlink"><defs><style type="text/css"></style></defs><path d="M445.5 652.8v46.1c0 3.3-2.7 6-6 6h-49.4c-3.3 0-6-2.7-6-6V519.2c0-3.3 2.7-6 6-6h49.4c3.3 0 6 2.7 6 6v45.6c0 6.6 5.4 12 12 12l488 0.5c6.6 0 12-5.4 12-12v-168c0-6.6-5.4-12-12-12l-488-0.2c-6.6 0-12 5.4-12 12v46.1c0 3.3-2.7 6-6 6h-49.4c-3.3 0-6-2.7-6-6V263.5c0-3.3 2.7-6 6-6h49.4c3.3 0 6 2.7 6 6v45.6c0 6.6 5.4 12 12 12l488.1 0.2c6.6 0 12-5.4 12-12V141.5c0-6.6-5.4-12-12-12l-488.1-0.2c-6.6 0-12 5.4-12 12v46.1c0 3.3-2.7 6-6 6h-55.4V140c0-6.6-5.4-12-12-12H262c-3.3 0-6-2.7-6-6V70.2c0-3.3-2.7-6-6-6h-52c-3.3 0-6 2.7-6 6V122c0 3.3-2.7 6-6 6H76c-6.6 0-12 5.4-12 12v679.8c0 6.6 5.4 12 12 12l46.1 0.1c3.3 0 6 2.7 6 6v45.8c0 6.6 5.4 12 12 12H186c3.3 0 6 2.7 6 6v52.1c0 3.3 2.7 6 6 6h52c3.3 0 6-2.7 6-6v-52.1c0-3.3 2.7-6 6-6h46c6.6 0 12-5.4 12-12v-45.9c0-3.3 2.7-6 6-6l46.1-0.1c6.6 0 12-5.4 12-12V775c0-3.3 2.7-6 6-6h49.4c3.3 0 6 2.7 6 6v45.6c0 6.6 5.4 12 12 12l488.1 0.5c6.6 0 12-5.4 12-12V653c0-6.6-5.4-12-12-12l-488.1-0.2c-6.6 0-12 5.4-12 12z m70-203.8h372.1c3.3 0 6 2.7 6 6v51.9c0 3.3-2.7 6-6 6H515.5c-3.3 0-6-2.7-6-6V455c0-3.3 2.7-6 6-6z m0-255.7h372.1c3.3 0 6 2.7 6 6v51.9c0 3.3-2.7 6-6 6H515.5c-3.3 0-6-2.7-6-6v-51.9c0-3.3 2.7-6 6-6zM314.1 767.9H134c-3.3 0-6-2.7-6-6v-51.8c0-3.3 2.7-6 6-6h180.1c3.3 0 6 2.7 6 6v51.8c0 3.3-2.7 6-6 6z m0-127.8H134c-3.3 0-6-2.7-6-6v-51.8c0-3.3 2.7-6 6-6h180.1c3.3 0 6 2.7 6 6v51.8c0 3.3-2.7 6-6 6z m0-127.9H134c-3.3 0-6-2.7-6-6v-52.1c0-3.3 2.7-6 6-6h180.1c3.3 0 6 2.7 6 6v52.1c0 3.3-2.7 6-6 6z m0-128.1H134c-3.3 0-6-2.7-6-6v-51.9c0-3.3 2.7-6 6-6h180.1c3.3 0 6 2.7 6 6v51.9c0 3.3-2.7 6-6 6z m0-127.9H134c-3.3 0-6-2.7-6-6V198c0-3.3 2.7-6 6-6h180.1c3.3 0 6 2.7 6 6v52.1c0 3.4-2.7 6.1-6 6.1z m573.5 512.5H515.5c-3.3 0-6-2.7-6-6v-51.9c0-3.3 2.7-6 6-6h372.1c3.3 0 6 2.7 6 6v51.9c0 3.3-2.7 6-6 6z" p-id="24637" ></path></svg>
