<?xml version="1.0" standalone="no"?><!DOCTYPE svg PUBLIC "-//W3C//DTD SVG 1.1//EN" "http://www.w3.org/Graphics/SVG/1.1/DTD/svg11.dtd"><svg t="1635154741016" class="icon" viewBox="0 0 1024 1024" version="1.1" xmlns="http://www.w3.org/2000/svg" p-id="1934" width="20" height="20" xmlns:xlink="http://www.w3.org/1999/xlink"><defs><style type="text/css"></style></defs><path d="M512 56.88888889A455.11111111 455.11111111 0 1 1 56.88888889 512 455.11111111 455.11111111 0 0 1 512 56.88888889z m0-54.61333334a509.72444445 509.72444445 0 1 0 360.448 149.27644445A509.72444445 509.72444445 0 0 0 512 2.27555555z" p-id="1935"></path><path d="M210.89848889 645.43857778L202.52444445 612.85262222a206.07431111 206.07431111 0 0 0 26.03235555 1.6384 10.19448889 10.19448889 0 0 0 8.92017778-2.91271111 10.37653333 10.37653333 0 0 0 3.09475555-8.73813333v-66.62826667c-12.37902222 4.55111111-25.12213333 8.92017778-38.04728888 13.1072l-8.73813334-34.77048889c15.65582222-3.64088889 31.1296-8.192 46.78542222-13.47128889v-65.71804444H202.52444445V402.77333333h38.9575111v-56.61582222H275.34222222V402.77333333h30.40142223v33.13208889H275.34222222v52.61084445c11.10471111-5.09724445 22.20942222-10.74062222 33.31413333-16.56604445v34.58844445c-11.10471111 5.64337778-22.20942222 10.92266667-33.31413333 16.20195555v89.01973333a30.40142222 30.40142222 0 0 1-8.55608889 25.66826667 29.85528889 29.85528889 0 0 1-25.48622222 8.55608889zM348.16 547.31662222v16.20195556h-32.40391111V356.352h173.6704v207.16657778H457.38666667v-16.20195556h-39.68568889v101.39875556h-32.03982223v-101.39875556z m0-159.65297777v48.24177777h37.86524445v-48.24177777z m0 128.52337777h37.86524445v-48.78791111H348.16z m109.22666667-128.52337777h-39.68568889v48.24177777H457.38666667z m0 128.52337777v-48.78791111h-39.68568889v48.78791111z m87.74542222-47.14951111l-20.02488889-28.76302222a387.75466667 387.75466667 0 0 0 137.26151111-94.11697778h27.67075556A335.14382222 335.14382222 0 0 0 826.39075555 439.18222222l-19.6608 28.76302223a407.23342222 407.23342222 0 0 1-42.96248888-20.93511112v16.74808889H694.04444445v36.40888889h112.6855111v31.67573334H694.04444445v77.36888888h28.21688888A532.11591111 532.11591111 0 0 0 748.65777778 544.95004445l30.76551111 11.4688a462.57493333 462.57493333 0 0 1-22.20942222 52.79288888h61.89511111v32.58595556H534.20942222v-31.85777778h62.98737778a296.5504 296.5504 0 0 0-22.20942222-50.42631111l31.1296-11.10471111a393.216 393.216 0 0 1 24.21191111 61.89511111h28.76302222v-77.73297778h-113.0496v-31.67573333h113.0496v-36.40888889h-70.4512v-18.20444445a447.64728889 447.64728889 0 0 1-43.50862222 22.75555556z m131.072-91.02222222a421.0688 421.0688 0 0 1-67.53848889 55.7056h132.16426667A310.56782222 310.56782222 0 0 1 675.84 378.19733333z" p-id="1936"></path></svg>
