<?xml version="1.0" standalone="no"?><!DOCTYPE svg PUBLIC "-//W3C//DTD SVG 1.1//EN" "http://www.w3.org/Graphics/SVG/1.1/DTD/svg11.dtd"><svg t="1635155435170" class="icon" viewBox="0 0 1024 1024" version="1.1" xmlns="http://www.w3.org/2000/svg" p-id="22597" width="20" height="20" xmlns:xlink="http://www.w3.org/1999/xlink"><defs><style type="text/css"></style></defs><path d="M0 0h1024v1024H0z" opacity=".01" p-id="22598"></path><path d="M896 85.333333h-192c-25.6 0-42.666667 17.066667-42.666667 42.666667v149.333333H512c-25.6 0-42.666667 17.066667-42.666667 42.666667V469.333333H320c-25.6 0-42.666667 17.066667-42.666667 42.666667v149.333333H128c-25.6 0-42.666667 17.066667-42.666667 42.666667V896c0 25.6 17.066667 42.666667 42.666667 42.666667h768c25.6 0 42.666667-17.066667 42.666667-42.666667V128c0-25.6-17.066667-42.666667-42.666667-42.666667z m-42.666667 768H170.666667v-106.666666h149.333333c25.6 0 42.666667-17.066667 42.666667-42.666667V554.666667H512c25.6 0 42.666667-17.066667 42.666667-42.666667V362.666667h149.333333c25.6 0 42.666667-17.066667 42.666667-42.666667V170.666667H853.333333v682.666666zM128 443.733333c25.6 0 42.666667-17.066667 42.666667-42.666666V307.2h106.666666c25.6 0 42.666667-17.066667 42.666667-42.666667s-17.066667-42.666667-42.666667-42.666666H170.666667V170.666667h106.666666c25.6 0 42.666667-17.066667 42.666667-42.666667s-17.066667-42.666667-42.666667-42.666667H128c-25.6 0-42.666667 17.066667-42.666667 42.666667v273.066667c0 21.333333 17.066667 42.666667 42.666667 42.666666z" p-id="22599" ></path></svg>
