<?xml version="1.0" standalone="no"?><!DOCTYPE svg PUBLIC "-//W3C//DTD SVG 1.1//EN" "http://www.w3.org/Graphics/SVG/1.1/DTD/svg11.dtd"><svg t="1629187657341" class="icon" viewBox="0 0 1024 1024" version="1.1" xmlns="http://www.w3.org/2000/svg" p-id="1937" width="20" height="20" xmlns:xlink="http://www.w3.org/1999/xlink"><defs><style type="text/css"></style></defs><path d="M742.71289088 116.4921875v131.83593775H841.589844v131.835937h65.9179685l-65.9179685 527.34375025H182.410156L116.4921875 116.4921875l395.5078125 131.83593775v131.835937h65.9179685V248.32812525h98.87695312V116.4921875h65.91796926zM512 709.75390625v65.9179685H446.0820315V709.75390625h65.9179685z m65.9179685-65.9179685v65.9179685H512V643.83593775h65.9179685zM512 577.9179685v65.91796925H446.0820315V577.9179685h65.9179685z m65.9179685-65.9179685v65.9179685H512V512h65.9179685zM446.0820315 295.92089818L182.410156 207.9204099 248.32812525 841.589844l263.67187475-0.06591847V775.67187475h65.9179685v65.85205078L775.67187475 841.589844l65.91796925-395.5078125h-65.91796925V314.24609375H643.83593775v131.83593775H512v65.9179685H446.0820315V295.92089818z" p-id="1938" ></path></svg>
