<?xml version="1.0" standalone="no"?><!DOCTYPE svg PUBLIC "-//W3C//DTD SVG 1.1//EN" "http://www.w3.org/Graphics/SVG/1.1/DTD/svg11.dtd"><svg t="1635158394812" class="icon" viewBox="0 0 1026 1024" version="1.1" xmlns="http://www.w3.org/2000/svg" p-id="2086" width="20.0390625" height="20" xmlns:xlink="http://www.w3.org/1999/xlink"><defs><style type="text/css"></style></defs><path d="M945.46803799 505.7178541l-384.20279209-390.15429785-25.78986035-26.45113887c-5.95150664-5.95150664-13.88684795-9.25789834-21.82218927-9.25789834-8.59661982 0-16.53196201 3.30639258-21.82218925 9.25789834L81.83835459 505.05657646C63.32255703 523.57237315 58.03232891 551.34606904 67.95150664 575.81337237c9.91917685 23.80602481 33.72520166 39.6767083 59.51506201 39.67670829h42.32182237v328.6554003h688.39088906V616.15135918h42.98310088c17.19324053 0 33.06392402-6.61278516 44.96693555-18.51579668 23.80602481-25.78986036 23.80602481-66.12784717-0.66127852-91.91770839z m-376.92872842 366.34827393H457.44452597V666.40852285h111.75606212v205.65760518z m216.89933819-328.6554003v328.65540029H632.68332119V641.94121953c0-10.58045537-3.96767109-21.16091074-11.24173389-28.43497442-7.27406279-7.27406279-17.85451904-11.9030124-28.43497441-11.9030124H433.63850117c-10.58045537 0-20.49963222 4.62894961-28.43497442 11.90301241-7.27406279 7.27406279-11.9030124 17.85451904-11.24173388 28.43497441v230.12490849H240.54518779V543.41072773H144.65980918l368.3321086-372.9610582 23.14474628 23.8060248 345.18736231 349.81631192-95.88537861-0.66127852z m0 0" p-id="2087"></path></svg>
