<?xml version="1.0" standalone="no"?><!DOCTYPE svg PUBLIC "-//W3C//DTD SVG 1.1//EN" "http://www.w3.org/Graphics/SVG/1.1/DTD/svg11.dtd"><svg t="1635142581939" class="icon" viewBox="0 0 1024 1024" version="1.1" xmlns="http://www.w3.org/2000/svg" p-id="3722" width="20" height="20" xmlns:xlink="http://www.w3.org/1999/xlink"><defs><style type="text/css"></style></defs><path d="M479.085714 614.4c0-1.828571 1.828571-3.657143 0-3.657143-9.142857-14.628571-56.685714-71.314286-73.142857-85.942857v-1.828571h64c1.828571 0 3.657143-1.828571 3.657143-3.657143v-60.342857c0-1.828571-1.828571-3.657143-3.657143-3.657143h-64v-67.657143c25.6-5.485714 49.371429-12.8 69.485714-20.114286 1.828571 0 1.828571-1.828571 1.828572-1.828571v-3.657143l-36.571429-53.028572c-1.828571-1.828571-3.657143-1.828571-3.657143-1.828571-42.057143 18.285714-109.714286 34.742857-173.714285 45.714286-1.828571 0-1.828571 0-1.828572 1.828571v3.657143c7.314286 12.8 14.628571 34.742857 16.457143 49.371429 0 1.828571 1.828571 3.657143 3.657143 3.657142 18.285714-1.828571 36.571429-5.485714 54.857143-7.314285h1.828571V457.142857h-78.628571c-1.828571 0-3.657143 1.828571-3.657143 3.657143v60.342857c0 1.828571 1.828571 3.657143 3.657143 3.657143h67.657143c-20.114286 53.028571-49.371429 107.885714-76.8 138.971429-1.828571 1.828571-1.828571 3.657143 0 3.657142 10.971429 18.285714 23.771429 43.885714 29.257143 60.342858 0 1.828571 1.828571 1.828571 3.657142 1.828571s1.828571 0 3.657143-1.828571c16.457143-21.942857 34.742857-53.028571 51.2-91.428572v177.371429c0 1.828571 1.828571 3.657143 3.657143 3.657143H402.285714c1.828571 0 3.657143-1.828571 3.657143-3.657143V608.914286c12.8 20.114286 23.771429 42.057143 29.257143 54.857143 0 1.828571 1.828571 1.828571 3.657143 1.828571s1.828571 0 3.657143-1.828571l36.571428-49.371429z" p-id="3723"></path><path d="M764.342857 735.085714h-42.057143V365.714286c0-20.114286-16.457143-36.571429-36.571428-36.571429h-157.257143c-20.114286 0-36.571429 16.457143-36.571429 36.571429v367.542857h-47.542857c-1.828571 0-3.657143 1.828571-3.657143 3.657143v60.342857c0 1.828571 1.828571 3.657143 3.657143 3.657143h320c1.828571 0 3.657143-1.828571 3.657143-3.657143v-60.342857c0-1.828571-1.828571-1.828571-3.657143-1.828572zM561.371429 462.628571v-65.828571h85.942857v65.828571h-85.942857z m87.771428 65.828572v69.485714h-85.942857v-69.485714h85.942857z m0 133.485714v71.314286h-85.942857v-71.314286h85.942857z" p-id="3724"></path><path d="M903.314286 877.714286V234.057143c0-20.114286-16.457143-36.571429-36.571429-36.571429H548.571429V109.714286c0-20.114286-16.457143-36.571429-36.571429-36.571429H157.257143c-20.114286 0-36.571429 16.457143-36.571429 36.571429v768H64v73.142857h896v-73.142857h-56.685714z m-709.485715 0V146.285714H475.428571v87.771429c0 20.114286 16.457143 36.571429 36.571429 36.571428h318.171429V877.714286H193.828571z" p-id="3725"></path></svg>
