<?xml version="1.0" standalone="no"?><!DOCTYPE svg PUBLIC "-//W3C//DTD SVG 1.1//EN" "http://www.w3.org/Graphics/SVG/1.1/DTD/svg11.dtd"><svg t="1629176521395" class="icon" viewBox="0 0 1024 1024" version="1.1" xmlns="http://www.w3.org/2000/svg" p-id="3752" width="20" height="20" xmlns:xlink="http://www.w3.org/1999/xlink"><defs><style type="text/css"></style></defs><path d="M928 960.2H98c-17.7 0-32-14.3-32-32V159c0-17.7 14.3-32 32-32h93c17.7 0 32 14.3 32 32s-14.3 32-32 32h-61v705.2h766V191h-67.5c-17.7 0-32-14.3-32-32s14.3-32 32-32H928c17.7 0 32 14.3 32 32v769.2c0 17.7-14.3 32-32 32z" p-id="3753"></path><path d="M576.1 190.8h-128c-17.7 0-32-14.3-32-32s14.3-32 32-32h128c17.7 0 32 14.3 32 32s-14.3 32-32 32zM319 256c-17.7 0-32-14.3-32-32V96c0-17.7 14.3-32 32-32s32 14.3 32 32v128c0 17.6-14.3 32-32 32zM703.3 256c-17.7 0-32-14.3-32-32V96c0-17.7 14.3-32 32-32s32 14.3 32 32v128c0 17.6-14.3 32-32 32zM510.7 830c-76.1 0-147.6-29.6-201.4-83.4s-83.4-125.3-83.4-201.4 29.6-147.6 83.4-201.4c53.8-53.8 125.3-83.4 201.4-83.4s147.6 29.6 201.4 83.4c53.8 53.8 83.4 125.3 83.4 201.4s-29.6 147.6-83.4 201.4C658.3 800.4 586.8 830 510.7 830z m0-505.7c-121.8 0-220.9 99.1-220.9 220.9 0 121.8 99.1 220.9 220.9 220.9 121.8 0 220.9-99.1 220.9-220.9-0.1-121.8-99.1-220.9-220.9-220.9z" p-id="3754"></path><path d="M512.7 608.1c-17.7 0-32-14.3-32-32V416.2c0-17.7 14.3-32 32-32s32 14.3 32 32V576c0 17.7-14.4 32.1-32 32.1z" p-id="3755"></path><path d="M653.1 608.1H513.8c-17.7 0-32-14.3-32-32s14.3-32 32-32h139.3c17.7 0 32 14.3 32 32s-14.3 32-32 32z" p-id="3756"></path></svg>
