<?xml version="1.0" standalone="no"?><!DOCTYPE svg PUBLIC "-//W3C//DTD SVG 1.1//EN" "http://www.w3.org/Graphics/SVG/1.1/DTD/svg11.dtd"><svg t="1635309893785" class="icon" viewBox="0 0 1024 1024" version="1.1" xmlns="http://www.w3.org/2000/svg" p-id="10698" width="20" height="20" xmlns:xlink="http://www.w3.org/1999/xlink"><defs><style type="text/css"></style></defs><path d="M938.666667 469.76m0 35.413333l0 0.426667q0 35.413333-35.413334 35.413333l-376.32 0q-35.413333 0-35.413333-35.413333l0-0.426667q0-35.413333 35.413333-35.413333l376.32 0q35.413333 0 35.413334 35.413333Z" p-id="10699"></path><path d="M903.275793 455.104203m25.041008 25.041008l0.301699 0.301699q25.041008 25.041008 0 50.082017l-170.459874 170.459874q-25.041008 25.041008-50.082017 0l-0.301699-0.301698q-25.041008-25.041008 0-50.082017l170.459875-170.459875q25.041008-25.041008 50.082016 0Z" p-id="10700"></path><path d="M953.556134 505.124733m-25.041008 25.041008l-0.301699 0.301699q-25.041008 25.041008-50.082016 0l-173.476864-173.476864q-25.041008-25.041008 0-50.082016l0.301699-0.301699q25.041008-25.041008 50.082016 0l173.476864 173.476864q25.041008 25.041008 0 50.082016Z" p-id="10701"></path><path d="M734.72 938.666667h-554.666667A94.72 94.72 0 0 1 85.333333 843.946667V178.346667a94.72 94.72 0 0 1 93.44-95.573334h554.666667a94.72 94.72 0 0 1 93.44 95.573334v44.8a35.413333 35.413333 0 1 1-70.826667 0V178.346667a23.893333 23.893333 0 0 0-22.613333-24.32h-554.666667a23.466667 23.466667 0 0 0-22.186666 24.32v665.6a23.466667 23.466667 0 0 0 22.186666 24.32h554.666667a23.893333 23.893333 0 0 0 22.613333-24.32v-44.8a35.413333 35.413333 0 1 1 70.826667 0v44.8A94.72 94.72 0 0 1 734.72 938.666667z" p-id="10702"></path></svg>
