<?xml version="1.0" standalone="no"?><!DOCTYPE svg PUBLIC "-//W3C//DTD SVG 1.1//EN" "http://www.w3.org/Graphics/SVG/1.1/DTD/svg11.dtd"><svg t="1635157515674" class="icon" viewBox="0 0 1024 1024" version="1.1" xmlns="http://www.w3.org/2000/svg" p-id="2055" width="20" height="20" xmlns:xlink="http://www.w3.org/1999/xlink"><defs><style type="text/css"></style></defs><path d="M836 554V182c0-36-30-66-66-66H248c-36 0-60 30-60 66v378H56v348h624c12 0 24-12 24-24s-12-24-24-24H98V602h198c36 90 120 144 216 144s180-60 216-144h198v258h-84c-12 0-24 12-24 24s12 24 24 24h126V554h-132z m-144 0l-6 18c-24 78-96 132-174 132S362 650 338 572L332 554H230V182c0-12 6-18 18-18h522c12 0 18 6 18 18v378H692z" p-id="2056" ></path><path d="M590 356H434v90H350l168 168 156-168H590zM434 272h156v54H434zM434 230h156v18H434z" p-id="2057" ></path></svg>
