<?xml version="1.0" standalone="no"?><!DOCTYPE svg PUBLIC "-//W3C//DTD SVG 1.1//EN" "http://www.w3.org/Graphics/SVG/1.1/DTD/svg11.dtd"><svg t="1635157265983" class="icon" viewBox="0 0 1093 1024" version="1.1" xmlns="http://www.w3.org/2000/svg" p-id="2024" width="21.34765625" height="20" xmlns:xlink="http://www.w3.org/1999/xlink"><defs><style type="text/css"></style></defs><path d="M150.26346667 353.84853333h789.4176l-52.73493334 52.73386667V146.336l52.73493334 52.73493333H150.26346667l52.73493333-52.73493333v260.24746667l-52.73493333-52.73386667z m0 52.73386667V146.336h789.4176v260.24746667H150.26346667zM920.29226667 517.87413333h26.368v-52.73493333H472.05013333v52.73493333h26.368zM920.29226667 632.92906667h26.368v-52.73386667H472.05013333v52.73386667h26.368zM920.29226667 747.98506667h26.368v-52.73493334H472.05013333v52.73493334h26.368zM920.29226667 863.04h26.368v-52.73386667H472.05013333v52.73493334h26.368zM150.26346667 822.29333333h263.1392l-52.73386667 52.736V458.63146667l52.73386667 52.73386666H150.26346667l52.73493333-52.73386666v416.39573333l-52.73493333-52.73386667z m0 52.73493334V458.63146667h263.1392v416.3968H150.26346667z" p-id="2025" ></path></svg>
