<?xml version="1.0" standalone="no"?><!DOCTYPE svg PUBLIC "-//W3C//DTD SVG 1.1//EN" "http://www.w3.org/Graphics/SVG/1.1/DTD/svg11.dtd"><svg t="1635157109863" class="icon" viewBox="0 0 1024 1024" version="1.1" xmlns="http://www.w3.org/2000/svg" p-id="26218" width="20" height="20" xmlns:xlink="http://www.w3.org/1999/xlink"><defs><style type="text/css"></style></defs><path d="M653.9 248.3c-16.8 0-30.4-13.6-30.4-30.4V96.2c0-16.8 13.6-30.4 30.4-30.4 16.8 0 30.4 13.6 30.4 30.4v121.7c0.1 16.8-13.5 30.4-30.4 30.4zM370.1 248.3c-16.8 0-30.4-13.6-30.4-30.4V96.2c0-16.8 13.6-30.4 30.4-30.4 16.8 0 30.4 13.6 30.4 30.4v121.7c0 16.8-13.7 30.4-30.4 30.4zM856.9 370.1H167.1c-16.8 0-30.4-13.6-30.4-30.4 0-16.8 13.6-30.4 30.4-30.4h689.7c16.8 0 30.4 13.6 30.4 30.4 0.1 16.6-13.5 30.4-30.3 30.4zM653.9 755.5H370.1c-16.8 0-30.4-13.6-30.4-30.4 0-16.8 13.6-30.4 30.4-30.4H654c16.8 0 30.4 13.6 30.4 30.4 0 16.8-13.6 30.4-30.5 30.4zM653.9 572.9H370.1c-16.8 0-30.4-13.6-30.4-30.4s13.6-30.4 30.4-30.4H654c16.8 0 30.4 13.6 30.4 30.4s-13.6 30.4-30.5 30.4z" p-id="26219" ></path><path d="M836.5 958.3h-649c-39.2 0-71-31.9-71-71V197.6c0-39.2 31.9-71 71-71h649.1c39.2 0 71 31.9 71 71v689.7c-0.1 39.1-31.9 71-71.1 71z m-649-770.8c-5.6 0-10.1 4.5-10.1 10.1v689.7c0 5.6 4.5 10.1 10.1 10.1h649.1c5.6 0 10.1-4.5 10.1-10.1V197.6c0-5.6-4.5-10.1-10.1-10.1H187.5z" p-id="26220" ></path></svg>
