<?xml version="1.0" standalone="no"?><!DOCTYPE svg PUBLIC "-//W3C//DTD SVG 1.1//EN" "http://www.w3.org/Graphics/SVG/1.1/DTD/svg11.dtd"><svg t="1629176631086" class="icon" viewBox="0 0 1024 1024" version="1.1" xmlns="http://www.w3.org/2000/svg" p-id="7325" width="20" height="20" xmlns:xlink="http://www.w3.org/1999/xlink"><defs><style type="text/css"></style></defs><path d="M861.68 638.92h-88.53v-88.44c-0.04-32.89-26.69-59.54-59.58-59.58H533.92v-89.86h89.27c32.89-0.04 59.54-26.69 59.58-59.58V195.94c-0.04-32.89-26.69-59.54-59.58-59.58H385.32c-32.89 0.04-59.54 26.69-59.58 59.58v145.53c0.03 32.89 26.69 59.54 59.58 59.58h89.02v89.89H295.61c-32.89 0.04-59.54 26.69-59.58 59.58v88.43h-89.37c-32.89 0.03-59.54 26.69-59.58 59.58v149.42c0.04 32.89 26.69 59.54 59.58 59.58h237.75c32.89-0.03 59.54-26.69 59.58-59.58V698.5c-0.04-32.89-26.69-59.54-59.58-59.58h-88.88v-88.34l0.05-0.05H713.5l0.05 0.05v88.34h-89.71c-32.89 0.04-59.54 26.69-59.58 59.58v149.46c0.04 32.89 26.69 59.54 59.58 59.58h237.84c32.89-0.03 59.54-26.69 59.58-59.58V698.5c-0.04-32.89-26.69-59.54-59.58-59.58z m-476.36-297.5V196l0.05-0.05H623.1l0.05 0.05v145.43l-0.05 0.06H385.36l-0.04-0.07z m-0.93 357.14v149.35l-0.05 0.05H146.66l-0.05-0.05V698.56l0.05-0.05h237.7l0.03 0.05z m477.29 149.35l-0.05 0.05H623.9l-0.05-0.05V698.56l0.05-0.05h237.7l0.05 0.05 0.03 149.35z m0 0" p-id="7326" ></path></svg>
