<?xml version="1.0" standalone="no"?><!DOCTYPE svg PUBLIC "-//W3C//DTD SVG 1.1//EN" "http://www.w3.org/Graphics/SVG/1.1/DTD/svg11.dtd"><svg t="1635156321162" class="icon" viewBox="0 0 1024 1024" version="1.1" xmlns="http://www.w3.org/2000/svg" p-id="1994" width="20" height="20" xmlns:xlink="http://www.w3.org/1999/xlink"><defs><style type="text/css"></style></defs><path d="M978.14755555 555.46311111c-10.46755555-31.51644445-33.792-53.58933333-72.59022222-68.49422222V351.232c0-7.39555555-3.64088889-14.336-9.67111111-18.54577778l-124.24533333-87.60888889c-10.24-7.28177778-24.46222222-4.77866667-31.744 5.46133334-0.22755555 0.34133333-0.56888889 0.79644445-0.79644444 1.13777778L661.04888889 307.88266667v-127.43111112c0-7.39555555-3.64088889-14.336-9.67111111-18.54577777l-124.24533333-87.60888889c-10.24-7.28177778-24.46222222-4.77866667-31.744 5.46133333-0.22755555 0.34133333-0.56888889 0.79644445-0.79644445 1.13777778l-112.75377778 81.00977778c-5.91644445 4.32355555-9.44355555 11.15022222-9.44355555 18.432v229.94488889l-85.90222222-60.52977778c-10.24-7.28177778-24.46222222-4.77866667-31.744 5.46133333-0.22755555 0.34133333-0.56888889 0.79644445-0.79644445 1.13777778l-112.75377778 81.00977778c-5.91644445 4.32355555-9.44355555 11.15022222-9.44355555 18.432V692.90666667c-4.77866667 0.45511111-9.55733333 2.38933333-13.42577778 5.91644444-30.26488889 27.76177778-52.224 55.40977778-65.30844444 81.92-14.90488889 30.49244445-18.09066667 59.05066667-9.44355556 85.21955556 9.67111111 29.12711111 32.99555555 51.88266667 69.40444444 67.584 31.744 13.65333333 72.59022222 21.61777778 121.40088889 23.66577778 8.07822222 0.34133333 16.27022222 0.45511111 24.576 0.4551111 92.72888889 0 203.43466667-20.02488889 315.05066667-57.11644444 121.51466667-40.39111111 230.17244445-96.59733333 305.83466666-158.03733333 38.00177778-30.83377778 65.87733333-61.66755555 83.05777778-91.59111111 19.91111111-34.13333333 25.03111111-66.33244445 15.24622222-95.45955556zM776.98844445 304.35555555L860.16 362.95111111v233.69955556l-83.17155555 47.67288888V304.35555555zM532.48 133.57511111l83.17155555 58.59555556v546.13333333L532.48 773.46133333V133.57511111zM291.84 409.14488889l80.78222222 56.88888889 2.38933333 340.76444444-83.17155555 9.55733333V409.14488889z m631.808 219.36355556c-14.22222222 24.68977778-39.13955555 51.99644445-72.24888889 78.96177777-71.45244445 58.14044445-174.99022222 111.38844445-291.49866666 150.18666667-106.95111111 35.61244445-212.65066667 54.72711111-300.48711112 54.72711111-7.73688889 0-15.47377778-0.11377778-22.86933333-0.45511111-42.66666667-1.70666667-79.07555555-8.64711111-105.13066667-19.91111111-23.89333333-10.35377778-38.79822222-23.89333333-44.25955555-40.16355556-8.76088889-26.39644445 7.50933333-62.91911111 44.94222222-102.17244444V813.51111111c0 12.51555555 10.24 22.75555555 22.75555555 22.75555556s22.75555555-10.24 22.75555556-22.75555556V467.62666667l68.83555556-49.49333334V841.95555555c0 6.48533333 2.73066667 12.62933333 7.62311111 16.9528889 4.20977778 3.75466667 9.55733333 5.80266667 15.13244444 5.80266666 0.91022222 0 1.70666667 0 2.61688889-0.11377778l128.68266667-14.79111111c11.49155555-1.36533333 20.13866667-11.03644445 20.13866667-22.64177777l-2.38933334-635.10755556 68.83555556-49.49333334V807.82222222c0 7.62311111 3.86844445 14.79111111 10.12622222 19.00088889 3.75466667 2.50311111 8.192 3.75466667 12.62933333 3.75466667 2.95822222 0 6.03022222-0.56888889 8.87466667-1.82044445L647.39555555 774.37155555c8.41955555-3.52711111 13.88088889-11.83288889 13.8808889-20.9351111v-36.864c0.91022222-2.50311111 1.47911111-5.23377778 1.4791111-8.07822223V362.83733333l68.83555556-49.49333333v370.23288889c0 8.07822222 4.32355555 15.58755555 11.37777778 19.68355556 7.05422222 4.096 15.70133333 4.096 22.75555556 0l128.68266666-73.728c7.05422222-4.096 11.49155555-11.60533333 11.49155556-19.79733334v-73.04533333c19.34222222 10.58133333 25.82755555 22.30044445 29.46844444 32.99555555 5.12 16.384 1.25155555 36.18133333-11.71911111 58.82311112z" p-id="1995"></path></svg>
