<?xml version="1.0" standalone="no"?><!DOCTYPE svg PUBLIC "-//W3C//DTD SVG 1.1//EN" "http://www.w3.org/Graphics/SVG/1.1/DTD/svg11.dtd"><svg t="1635309315066" class="icon" viewBox="0 0 1024 1024" version="1.1" xmlns="http://www.w3.org/2000/svg" p-id="3928" width="20" height="20" xmlns:xlink="http://www.w3.org/1999/xlink"><defs><style type="text/css"></style></defs><path d="M929.297616 105.70139 93.865319 105.70139c-17.23043 0-31.159674 13.96813-31.159674 31.18935l0 722.255655c0 17.249873 13.928221 31.198559 31.159674 31.198559L265.029654 890.344954c17.209964 0 31.15865-13.948687 31.15865-31.198559l0-56.494689c0-15.569604 12.707416-28.278043 28.316929-28.278043 15.609513 0 28.316929 12.70844 28.316929 28.278043l0 56.494689c0 17.249873 13.948687 31.198559 31.159674 31.198559l255.17675 0c17.23043 0 31.179117-13.948687 31.179117-31.198559l0-56.494689c0-15.569604 12.70844-28.278043 28.297486-28.278043 15.609513 0 28.316929 12.70844 28.316929 28.278043l0 56.494689c0 17.249873 13.96813 31.198559 31.18014 31.198559l171.165358 0c17.23043 0 31.179117-13.948687 31.179117-31.198559L960.476733 136.89074C960.476733 119.66952 946.528046 105.70139 929.297616 105.70139M898.1185 827.985698 789.290909 827.985698l0-25.335015c0-49.971112-40.665165-90.655719-90.655719-90.655719-49.971112 0-90.655719 40.684608-90.655719 90.655719l0 25.335015L415.161976 827.985698l0-25.335015c0-49.971112-40.665165-90.655719-90.655719-90.655719-50.030463 0-90.655719 40.684608-90.655719 90.655719l0 25.335015L125.02397 827.985698 125.02397 168.079066 898.1185 168.079066 898.1185 827.985698zM283.721365 395.888516c0 7.764847 5.963829 14.159488 13.367449 14.159488 0.060375 0 0.140193-0.039909 0.240477-0.039909 2.761903 37.300534 32.119535 74.652234 68.022233 74.652234 35.882232 0 65.259306-37.3517 68.022233-74.652234 0.079818 0 0.119727 0.039909 0.220011 0.039909 7.424086 0 13.348006-6.39464 13.348006-14.159488 0-5.77247-3.241834-10.715039-7.90504-12.927427 2.701528-8.405437 4.182252-17.339924 4.182252-26.705222 0-45.589314-34.860972-82.601276-77.867462-82.601276s-77.907371 37.011962-77.907371 82.601276c0 9.365298 1.480724 18.299785 4.161786 26.705222C287.003108 385.173476 283.721365 390.117069 283.721365 395.888516M199.869608 616.97689 530.812973 616.97689c4.002151 0 7.243985-3.201925 7.243985-7.243985l0-25.916253c0-1.982144-0.800225-3.861958-2.200108-5.243421-31.79924-30.879288-70.623477-52.656267-112.38972-63.073524-1.101077-0.549515-2.221598-0.881067-3.461845-0.881067l-3.802606 0c-1.200338 0-2.361791 0.291642-3.402493 0.881067-12.647041 6.735401-29.937846 10.616802-47.448662 10.616802s-34.860972-3.8814-47.449685-10.656711c-1.060145-0.549515-2.241041-0.841158-3.442402-0.841158l-2.741437 0c-0.540306 0-1.140986 0.039909-1.700735 0.192382-42.806945 10.146081-82.610486 32.204469-115.210975 63.763233-1.420349 1.381463-2.180666 3.2623-2.180666 5.243421l0 25.916253C192.625624 613.774965 195.867458 616.97689 199.869608 616.97689M586.587254 509.315868l232.002958 0c6.884804 0 12.467963-5.611811 12.467963-12.496615 0-6.843872-5.583159-12.468986-12.467963-12.468986L586.587254 484.350267c-6.884804 0-12.467963 5.624091-12.467963 12.468986C574.119291 503.704057 579.70245 509.315868 586.587254 509.315868M586.587254 410.729525l232.002958 0c6.884804 0 12.467963-5.574972 12.467963-12.478196 0-6.884804-5.583159-12.456706-12.467963-12.456706L586.587254 385.794623c-6.884804 0-12.467963 5.571902-12.467963 12.456706C574.119291 405.154553 579.70245 410.729525 586.587254 410.729525" p-id="3929" ></path></svg>
