<?xml version="1.0" standalone="no"?><!DOCTYPE svg PUBLIC "-//W3C//DTD SVG 1.1//EN" "http://www.w3.org/Graphics/SVG/1.1/DTD/svg11.dtd"><svg t="1635152955546" class="icon" viewBox="0 0 1024 1024" version="1.1" xmlns="http://www.w3.org/2000/svg" p-id="15285" width="20" height="20" xmlns:xlink="http://www.w3.org/1999/xlink"><defs><style type="text/css"></style></defs><path d="M860.8 73.6v802.4l-40-30.4-44-34.4-44 34.4-82.4 64.8-107.2-69.6-44-28.8-40.8 32.8-79.2 64-86.4-64.8-42.4-32-43.2 32-43.2 32V73.6h696.8m72-72H91.2v1015.2l157.6-116L380.8 1000 504 900.8l150.4 97.6 123.2-96.8 156 120V1.6h-0.8z" p-id="15286"></path><path d="M202.4 693.6h20.8v48.8h-20.8zM492 693.6h38.4v48.8h-38.4zM568.8 693.6h38.4v48.8h-38.4zM645.6 693.6h38.4v48.8h-38.4zM415.2 693.6h38.4v48.8h-38.4zM338.4 693.6h38.4v48.8h-38.4zM261.6 693.6h38.4v48.8h-38.4zM722.4 693.6h38.4v48.8h-38.4zM799.2 693.6h20.8v48.8h-20.8zM478.4 600.8h70.4V492h132.8v-69.6H548.8v-44h132.8v-68.8h-112L664 196.8l-45.6-40.8L512 278.4 405.6 156 360 196.8l95.2 112.8H342.4v68.8h136v44h-136v69.6h136z" p-id="15287"></path></svg>
