<?xml version="1.0" standalone="no"?><!DOCTYPE svg PUBLIC "-//W3C//DTD SVG 1.1//EN" "http://www.w3.org/Graphics/SVG/1.1/DTD/svg11.dtd"><svg t="1629184443342" class="icon" viewBox="0 0 1169 1024" version="1.1" xmlns="http://www.w3.org/2000/svg" p-id="23892" width="22.83203125" height="20" xmlns:xlink="http://www.w3.org/1999/xlink"><defs><style type="text/css"></style></defs><path d="M1164.28835 491.533994l-168.625897-291.77178a52.826785 52.826785 0 0 0-48.62863-26.938162 53.526478 53.526478 0 0 0-44.080629 80.464639l137.48958 238.245303a41.631705 41.631705 0 0 1 5.247694 20.291083 53.526478 53.526478 0 0 1 0 10.495388 48.62863 48.62863 0 0 1-4.198155 9.795695l-213.406218 369.787496a41.281859 41.281859 0 0 1-15.043389 15.043389 39.882474 39.882474 0 0 1-20.291083 5.247694H364.889648a39.882474 39.882474 0 0 1-20.291083-5.247694 44.080629 44.080629 0 0 1-15.043389-15.043389l-213.406218-369.787496a34.984626 34.984626 0 0 1-3.848309-9.795695 34.984626 34.984626 0 0 1 0-10.495388 41.631705 41.631705 0 0 1 5.247694-20.291083L329.555176 121.746498a54.22617 54.22617 0 0 1 6.647079-8.39631 43.03109 43.03109 0 0 1 18.192005-10.495388 50.727708 50.727708 0 0 1 10.495388 0H899.104886a23.789546 23.789546 0 0 0 20.291083-34.984626L892.10796 20.291083a40.582166 40.582166 0 0 0-34.984626-20.291083H312.762556a40.582166 40.582166 0 0 0-34.984626 20.291083L5.59754 491.533994a40.23232 40.23232 0 0 0 0 40.582166l271.830543 471.242911a40.932012 40.932012 0 0 0 34.984626 20.640929h544.360779a40.932012 40.932012 0 0 0 34.984626-20.640929l272.18039-471.242911a41.981551 41.981551 0 0 0 0.349846-40.582166z" p-id="23893" ></path><path d="M256.087462 441.156133a48.278784 48.278784 0 0 0-17.492313 65.771096l166.876665 288.97301A47.928937 47.928937 0 0 0 489.784763 747.971302l-167.926205-289.322856a48.278784 48.278784 0 0 0-65.771096-17.492313zM677.652204 186.11821a47.928937 47.928937 0 0 0-17.492313 65.42125l166.876665 289.322856A47.928937 47.928937 0 0 0 909.600273 492.933379l-166.176973-289.322856a47.928937 47.928937 0 0 0-65.771096-17.492313zM529.667236 511.825077a55.275709 55.275709 0 1 0 110.201572 0 55.275709 55.275709 0 0 0-110.201572 0z" p-id="23894" ></path></svg>
