<?xml version="1.0" standalone="no"?><!DOCTYPE svg PUBLIC "-//W3C//DTD SVG 1.1//EN" "http://www.w3.org/Graphics/SVG/1.1/DTD/svg11.dtd"><svg t="1635155234636" class="icon" viewBox="0 0 1024 1024" version="1.1" xmlns="http://www.w3.org/2000/svg" p-id="21827" width="20" height="20" xmlns:xlink="http://www.w3.org/1999/xlink"><defs><style type="text/css"></style></defs><path d="M864 1024H160a96 96 0 0 1-96-96V96a96 96 0 0 1 96-96h704a96 96 0 0 1 96 96v832a96 96 0 0 1-96 96zM160 64a32 32 0 0 0-32 32v832a32 32 0 0 0 32 32h704a32 32 0 0 0 32-32V96a32 32 0 0 0-32-32z" p-id="21828"></path><path d="M96 832h832v64H96z" p-id="21829"></path><path d="M768 864h64v128h-64zM192 128h64v64H192zM768 128h64v64h-64zM192 704h64v64H192zM768 704h64v64h-64zM512 704a256 256 0 1 1 256-256 256 256 0 0 1-256 256z m0-448a192 192 0 1 0 192 192 192 192 0 0 0-192-192z" p-id="21830"></path><path d="M489.344 425.376l224-224 45.248 45.248-224 224z" p-id="21831"></path></svg>
