<?xml version="1.0" standalone="no"?><!DOCTYPE svg PUBLIC "-//W3C//DTD SVG 1.1//EN" "http://www.w3.org/Graphics/SVG/1.1/DTD/svg11.dtd"><svg t="1635155767096" class="icon" viewBox="0 0 1024 1024" version="1.1" xmlns="http://www.w3.org/2000/svg" p-id="33947" width="20" height="20" xmlns:xlink="http://www.w3.org/1999/xlink"><defs><style type="text/css"></style></defs><path d="M561.15 529.127v86.305c0.419-0.01 0.827-0.064 1.25-0.064 32.309 0 58.744 26.435 58.744 58.744v12.499H858.51v-12.499c0-32.309 26.435-58.744 58.744-58.744v-86.24c0-16.5-13.499-29.998-29.997-29.998h-296.11c-16.498 0-29.998 13.5-29.998 29.997z m356.104 109.99c-18.56 0-33.747 15.185-33.747 33.746v73.742h-287.36v-73.742c0-18.561-15.186-33.747-33.747-33.747-18.56 0-33.747 15.186-33.747 33.747V887.84H572.4v-26.247h334.856v26.247h43.746V672.863c0-18.561-15.186-33.747-33.747-33.747zM617.719 469.244h89.593V159.642c0-13.971-11.43-25.4-25.4-25.4h-445.99c-13.971 0-25.4 11.43-25.4 25.4v632.073a772.419 772.419 0 0 0-18.491 3.465c-9.114-14.416-25.183-23.996-43.498-23.996-28.18 0-51.054 22.662-51.421 50.755-0.689 0.264-1.395 0.526-2.076 0.79-34.924 13.568-24.91 65.55 12.557 65.55H492.918V494.648c0-13.97 11.432-25.4 25.402-25.4h99.399zM424.916 658.417c0 13.97-11.43 25.4-25.4 25.4h-99.402c-13.97 0-25.4-11.43-25.4-25.4v-163.77c0-13.97 11.43-25.4 25.4-25.4h99.401c13.97 0 25.4 11.43 25.4 25.4v163.77z m0-270.535c0 13.971-11.43 25.4-25.4 25.4h-99.402c-13.97 0-25.4-11.43-25.4-25.4v-163.77c0-13.971 11.43-25.4 25.4-25.4h99.401c13.97 0 25.4 11.43 25.4 25.4v163.77z m68 0v-163.77c0-13.971 11.432-25.4 25.402-25.4h99.4c13.972 0 25.401 11.43 25.401 25.4v163.77c0 13.971-11.43 25.4-25.4 25.4h-99.401c-13.97 0.002-25.402-11.429-25.402-25.4z" p-id="33948" ></path></svg>
