<?xml version="1.0" standalone="no"?><!DOCTYPE svg PUBLIC "-//W3C//DTD SVG 1.1//EN" "http://www.w3.org/Graphics/SVG/1.1/DTD/svg11.dtd"><svg t="1629184428203" class="icon" viewBox="0 0 1024 1024" version="1.1" xmlns="http://www.w3.org/2000/svg" p-id="23445" width="20" height="20" xmlns:xlink="http://www.w3.org/1999/xlink"><defs><style type="text/css"></style></defs><path d="M212.303961 322.103763c-69.036319 0-125.216833 56.166667-125.216834 125.222854 0 69.049866 56.173891 125.236702 125.216834 125.236702 69.049866 0 125.216532-56.187137 125.216532-125.236702-0.000301-69.056188-56.166968-125.222854-125.216532-125.222854z m-0.00572 189.845061c-35.616946 0-64.593006-28.987499-64.593006-64.626723 0-35.617548 28.97606-64.604446 64.593006-64.604445 35.628085 0 64.604145 28.986897 64.604145 64.604445 0 35.639223-28.97606 64.626722-64.604145 64.626723zM506.684883 255.699715a79.029258 79.029258 0 0 1 1.70628-1.765284c30.876208-30.876208 81.123575-30.885842 111.999784-0.009633 30.885842 30.885541 30.875907 81.132907-0.000302 112.009116-0.581002 0.581002-1.171036 1.147254-1.764982 1.70628l52.563248 52.56355a158.907742 158.907742 0 0 0 1.747221-1.716817c59.863708-59.864009 59.863708-157.244209 0.005419-217.102799-59.846549-59.846549-157.239091-59.858891-217.1031 0.005118a156.263429 156.263429 0 0 0-1.716817 1.74692l52.563249 52.563549z" p-id="23446"></path><path d="M454.758028 202.405548l52.558732 52.558733-179.434282 179.434583-52.558733-52.558733zM618.823143 367.37197l52.558733 52.558733-179.434282 179.434282-52.558733-52.558733zM546.786083 768.300285a79.029258 79.029258 0 0 1-1.70628 1.765284c-30.876208 30.876208-81.123575 30.885842-111.999483 0.009934-30.885842-30.885842-30.875907-81.133208 0.000301-112.009417 0.581002-0.581002 1.171036-1.147254 1.764983-1.70628l-52.563248-52.563249a158.907742 158.907742 0 0 0-1.747222 1.716817c-59.863708 59.863407-59.863708 157.243908-0.005419 217.102799 59.846549 59.846549 157.239392 59.858891 217.102799-0.005419a158.883057 158.883057 0 0 0 1.716817-1.74692l-52.563248-52.563549z" p-id="23447"></path><path d="M598.714443 821.598968l-52.559034-52.559034 179.434584-179.434584 52.559033 52.559034zM434.648123 656.62803l-52.559034-52.559034 179.434584-179.434282 52.559034 52.559034z" p-id="23448"></path><path d="M811.696641 424.626586c-69.03662 0-125.216833 56.166667-125.216833 125.222854 0 69.049264 56.173891 125.236401 125.216833 125.236401 69.049565 0 125.216231-56.187137 125.216232-125.236401 0-69.055887-56.166667-125.222854-125.216232-125.222854z m-0.005719 189.845061c-35.616946 0-64.593006-28.987198-64.593007-64.626722 0-35.617247 28.97606-64.604145 64.593007-64.604145 35.628386 0 64.604145 28.986897 64.604144 64.604145 0 35.639524-28.97606 64.626722-64.604144 64.626722z" p-id="23449"></path></svg>
