<?xml version="1.0" standalone="no"?><!DOCTYPE svg PUBLIC "-//W3C//DTD SVG 1.1//EN" "http://www.w3.org/Graphics/SVG/1.1/DTD/svg11.dtd"><svg t="1629184381215" class="icon" viewBox="0 0 1152 1024" version="1.1" xmlns="http://www.w3.org/2000/svg" p-id="23143" width="22.5" height="20" xmlns:xlink="http://www.w3.org/1999/xlink"><defs><style type="text/css"></style></defs><path d="M150.776676 300.088889h363.235555v56.888889H150.776676zM145.087787 494.364444h246.613333v56.888889H145.087787zM145.087787 688.355556h165.831111v56.888888H145.087787z"  p-id="23144"></path><path d="M56.910009 113.777778h120.035555v20.48A35.555556 35.555556 0 0 0 212.50112 170.666667H568.910009a35.555556 35.555556 0 0 0 35.271111-35.555556V113.777778h121.173333v252.871111h56.888889V92.444444A34.417778 34.417778 0 0 0 748.394453 56.888889h-144.782222v-21.617778A35.555556 35.555556 0 0 0 568.910009 0H212.50112a35.555556 35.555556 0 0 0-35.555556 35.271111V56.888889h-142.222222A34.417778 34.417778 0 0 0 0.02112 92.444444v779.946667a34.417778 34.417778 0 0 0 34.133333 34.702222H398.243342v-56.888889H56.910009z m176.924444-56.888889h312.888889v56.888889h-312.888889z"  p-id="23145"></path><path d="M910.243342 876.942222a21.617778 21.617778 0 0 0 0-4.551111l-88.177778-253.155555 20.48-56.888889h6.257778a28.444444 28.444444 0 0 0 0-56.888889h-256a28.444444 28.444444 0 0 0 0 56.888889h5.973334l20.48 56.888889-87.324445 251.164444v1.706667a16.782222 16.782222 0 0 0 0 3.697777 40.391111 40.391111 0 0 0 0 5.688889 22.755556 22.755556 0 0 0 0 4.266667 24.462222 24.462222 0 0 0 1.706667 6.542222s0 1.422222 1.422222 2.275556a23.04 23.04 0 0 0 4.835556 6.542222l2.275555 1.422222a23.893333 23.893333 0 0 0 7.395556 4.266667 19.057778 19.057778 0 0 0 6.826666 0H881.798898a28.444444 28.444444 0 0 0 9.386666-1.706667h3.128889a23.04 23.04 0 0 0 7.395556-5.12v-1.422222a28.444444 28.444444 0 0 0 4.835555-7.111111 17.351111 17.351111 0 0 0 0-3.128889A23.04 23.04 0 0 0 910.243342 881.777778a21.617778 21.617778 0 0 0 0-4.835556zM597.354453 853.333333l77.937778-223.857777a42.097778 42.097778 0 0 0 0-5.404445 22.186667 22.186667 0 0 0 0-4.551111 28.444444 28.444444 0 0 0 0-4.835556 31.288889 31.288889 0 0 0 0-5.12l-17.066667-46.08h121.173334l-16.782222 46.08v3.413334a41.528889 41.528889 0 0 0 0 6.257778 21.617778 21.617778 0 0 0 0 5.973333 14.222222 14.222222 0 0 0 0 3.413333l79.075555 224.711111z" p-id="23146"></path></svg>
