<?xml version="1.0" standalone="no"?><!DOCTYPE svg PUBLIC "-//W3C//DTD SVG 1.1//EN" "http://www.w3.org/Graphics/SVG/1.1/DTD/svg11.dtd"><svg t="1629176693614" class="icon" viewBox="0 0 1024 1024" version="1.1" xmlns="http://www.w3.org/2000/svg" p-id="9550" width="20" height="20" xmlns:xlink="http://www.w3.org/1999/xlink"><defs><style type="text/css"></style></defs><path d="M485.66 209.44c2.52 1.25 4.57 3.29 5.81 5.81l26.14 52.97 58.45 8.49c7 1.02 11.84 7.51 10.83 14.51-0.4 2.79-1.72 5.36-3.73 7.33l-42.3 41.23 9.98 58.21c1.2 6.97-3.48 13.58-10.45 14.78-2.77 0.48-5.63 0.02-8.12-1.29L480 384l-52.28 27.49c-6.26 3.29-14 0.88-17.29-5.37a12.843 12.843 0 0 1-1.29-8.12l9.98-58.21-42.3-41.23c-5.06-4.93-5.17-13.04-0.23-18.1 1.96-2.02 4.54-3.33 7.33-3.73l58.45-8.49 26.14-52.97c3.14-6.35 10.82-8.95 17.15-5.83zM448 512c17.67 0 32 14.33 32 32s-14.33 32-32 32H256c-17.67 0-32-14.33-32-32s14.33-32 32-32h192zM320 640c17.67 0 32 14.33 32 32s-14.33 32-32 32h-64c-17.67 0-32-14.33-32-32s14.33-32 32-32h64z m448 64c17.67 0 32 14.33 32 32s-14.33 32-32 32H640c-17.67 0-32-14.33-32-32s14.33-32 32-32h128z m-64-128c-88.37 0-160 71.63-160 160s71.63 160 160 160 160-71.63 160-160-71.63-160-160-160z m0-64c123.71 0 224 100.29 224 224S827.71 960 704 960 480 859.71 480 736s100.29-224 224-224zM832 64c17.67 0 32 14.33 32 32v320c0 17.67-14.33 32-32 32s-32-14.33-32-32V128H160v768h288c17.67 0 32 14.33 32 32s-14.33 32-32 32H128c-17.67 0-32-14.33-32-32V96c0-17.67 14.33-32 32-32h704z" p-id="9551" ></path></svg>
