<?xml version="1.0" standalone="no"?><!DOCTYPE svg PUBLIC "-//W3C//DTD SVG 1.1//EN" "http://www.w3.org/Graphics/SVG/1.1/DTD/svg11.dtd"><svg t="1629176667205" class="icon" viewBox="0 0 1024 1024" version="1.1" xmlns="http://www.w3.org/2000/svg" p-id="8662" width="20" height="20" xmlns:xlink="http://www.w3.org/1999/xlink"><defs><style type="text/css"></style></defs><path d="M975.3 378.5L770.6 173.8c-1.2-1.2-2.8-1.9-4.5-1.9H645.9c-3.4 0-6.1 2.7-6.2 6.1-3.2 68.8-60 123.5-129.5 123.5-69.6 0-126.3-54.8-129.5-123.5-0.2-3.4-2.8-6.1-6.2-6.1H254.2c-1.7 0-3.3 0.7-4.5 1.9L44.9 378.5c-2.5 2.5-2.5 6.5 0 9l153.6 153.6c1.2 1.2 2.9 1.9 4.5 1.9s3.2-0.6 4.5-1.9l44.3-44.3v369.5c0 3.6 2.9 6.5 6.5 6.5h503.8c3.6 0 6.5-2.9 6.5-6.5V496.9l44.1 44.1c1.2 1.2 2.9 1.9 4.5 1.9s3.2-0.6 4.5-1.9l153.6-153.6c2.5-2.4 2.5-6.4 0-8.9zM817.2 455l-3.4-3.4-109.2-109.2v466.4H315.8V342.2L206.5 451.5 203 455l-72-72 147-147h49.2c26.4 75.9 98.5 129.7 182.9 129.7S666.6 311.9 693 236h49.2l147 147-72 72z" p-id="8663"></path></svg>
