<?xml version="1.0" standalone="no"?><!DOCTYPE svg PUBLIC "-//W3C//DTD SVG 1.1//EN" "http://www.w3.org/Graphics/SVG/1.1/DTD/svg11.dtd"><svg t="1672719945139" class="icon" viewBox="0 0 1024 1024" version="1.1" xmlns="http://www.w3.org/2000/svg" p-id="1519" xmlns:xlink="http://www.w3.org/1999/xlink" width="200" height="200"><path d="M512 960c-211.8 0-384.12-172.31-384.12-384.11S300.2 191.78 512 191.78s384.11 172.31 384.11 384.11S723.8 960 512 960z m0-715.52c-182.74 0-331.41 148.67-331.41 331.41S329.26 907.29 512 907.29s331.41-148.67 331.41-331.41S694.74 244.48 512 244.48z" p-id="1520"></path><path d="M512 244.48c-14.55 0-26.35-11.8-26.35-26.35V115.91c0-14.55 11.8-26.35 26.35-26.35s26.35 11.8 26.35 26.35v102.22c0.01 14.55-11.79 26.35-26.35 26.35zM760.15 343.02h-0.33c-6.29-0.08-12.56-2.4-17.51-6.95l-0.06-0.06c-0.01-0.01-0.03-0.02-0.03-0.03 0-0.01-0.01-0.01-0.01-0.01l-0.03-0.03c-0.01-0.02-0.01-0.03-0.04-0.04l-0.03-0.03c-0.01-0.01-0.01-0.02-0.04-0.03 0-0.01-0.01-0.02-0.03-0.03 0-0.01-0.02-0.01-0.03-0.03-0.01-0.01-0.01-0.03-0.04-0.04l-0.03-0.03-0.03-0.03h-0.01l-0.06-0.06c0.01 0.01 0-0.01-0.03-0.03l-0.03-0.03-0.01-0.01c-0.01-0.01-0.02-0.01-0.03-0.03l-0.03-0.03c-0.01 0-0.01-0.01-0.01-0.01-0.01-0.01-0.03-0.02-0.03-0.03-0.02-0.01-0.03-0.03-0.03-0.03-0.01-0.01-0.03-0.02-0.03-0.03-0.01-0.01-0.02-0.01-0.03-0.02-0.01 0-0.01-0.01-0.03-0.03 0-0.02-0.03-0.02-0.03-0.03-0.01 0-0.01-0.02-0.03-0.03-0.01-0.01-0.01-0.01-0.01-0.02-0.01-0.01-0.02-0.03-0.03-0.03l-0.03-0.03-0.01-0.01c-0.01 0-0.02-0.03-0.03-0.03-0.01-0.01 0-0.03-0.03-0.03a0.265 0.265 0 0 0-0.05-0.06h-0.01a26.246 26.246 0 0 1-7.51-17.42v-0.01c0-0.08-0.01-0.15-0.01-0.23v-0.04c0-0.01 0.01-0.03-0.01-0.04v-0.01-0.07c0-0.09 0-0.19-0.01-0.28v-0.05-0.12-0.05-0.03-0.04-0.04-0.04-0.04-0.04-0.04-0.04-0.05-0.04-0.04-0.04-0.04-0.04c0-0.03 0-0.05 0.01-0.04v-0.05-0.03-0.01-0.12c0.15-6.53 2.73-13.02 7.71-18l72.28-72.28c10.28-10.29 26.97-10.29 37.26 0a26.259 26.259 0 0 1 7.72 18.63c0 6.75-2.57 13.49-7.72 18.64l-72.28 72.28c0 0.01-0.03 0.01-0.03 0.03l-0.03 0.03-0.01 0.01c-0.01 0.01-0.04 0.01-0.03 0.03-0.02 0.01-0.03 0.01-0.03 0.03-0.02 0.01-0.04 0.03-0.06 0.05v0.01l-0.06 0.06h-0.01l-0.03 0.03c-0.08 0.08-0.17 0.16-0.24 0.24l-0.03 0.03-0.01 0.01-0.03 0.03-0.03 0.03c-0.01 0.01-0.02 0.03-0.03 0.03-0.01-0.01-0.03 0.02-0.03 0.03l-0.01 0.01c-0.03 0.01-0.02 0.02-0.05 0.04 0 0.01-0.01 0.01-0.01 0.01-4.97 4.61-11.27 6.94-17.6 7.01-0.02 0.06-0.12 0.06-0.22 0.06z" p-id="1521"></path><path d="M563.11 142.26H460.89c-14.55 0-26.35-11.8-26.35-26.35V90.35c0-14.55 11.8-26.35 26.35-26.35H563.1c14.55 0 26.35 11.8 26.35 26.35v25.56c0.01 14.55-11.79 26.35-26.34 26.35zM512 653.35c-42.71 0-77.46-34.75-77.46-77.46s34.75-77.46 77.46-77.46c42.71 0 77.46 34.75 77.46 77.46s-34.75 77.46-77.46 77.46z m0-102.22c-13.65 0-24.76 11.1-24.76 24.76s11.1 24.76 24.76 24.76c13.65 0 24.75-11.1 24.75-24.76s-11.1-24.76-24.75-24.76z"  p-id="1522"></path><path d="M512 551.13c-14.55 0-26.35-11.8-26.35-26.35V289.12c0-14.55 11.8-26.35 26.35-26.35s26.35 11.8 26.35 26.35v235.66c0.01 14.55-11.79 26.35-26.35 26.35zM512 698.79c-14.55 0-26.35-11.8-26.35-26.35V627c0-14.55 11.8-26.35 26.35-26.35s26.35 11.8 26.35 26.35v45.44c0.01 14.55-11.79 26.35-26.35 26.35z" p-id="1523"></path></svg>