<?xml version="1.0" standalone="no"?><!DOCTYPE svg PUBLIC "-//W3C//DTD SVG 1.1//EN" "http://www.w3.org/Graphics/SVG/1.1/DTD/svg11.dtd"><svg t="1629187755013" class="icon" viewBox="0 0 1024 1024" version="1.1" xmlns="http://www.w3.org/2000/svg" p-id="1794" width="20" height="20" xmlns:xlink="http://www.w3.org/1999/xlink"><defs><style type="text/css"></style></defs><path d="M868.40624999 110.125L182.85937499 110.125C153.74999999 110.125 130.12499999 133.75 130.12499999 162.859375l0 685.546875c0 29.109375 23.625 52.734375 52.734375 52.734375l685.546875 0c29.109375 0 52.734375-23.625 52.734375-52.734375L921.14062499 162.859375C921.14062499 133.75 897.51562499 110.125 868.40624999 110.125zM868.40624999 848.40625L182.85937499 848.40625 182.85937499 162.859375l685.546875 0L868.40624999 848.40625zM563.81249999 795.671875l187.3125 0C786.77343749 795.671875 815.67187499 766.7734375 815.67187499 731.125L815.67187499 280.140625C815.67187499 244.4921875 786.77343749 215.59375 751.12499999 215.59375L563.81249999 215.59375C528.16406249 215.59375 499.26562499 244.4921875 499.26562499 280.140625l0 450.984375C499.26562499 766.7734375 528.16406249 795.671875 563.81249999 795.671875zM551.99999999 280.140625C551.99999999 273.6015625 557.27343749 268.328125 563.81249999 268.328125l187.3125 0C757.66406249 268.328125 762.93749999 273.6015625 762.93749999 280.140625l0 450.984375C762.93749999 737.6640625 757.66406249 742.9375 751.12499999 742.9375L563.81249999 742.9375C557.27343749 742.9375 551.99999999 737.6640625 551.99999999 731.125L551.99999999 280.140625zM288.32812499 479.265625l105.46875 0c29.109375 0 52.734375-23.625 52.734375-52.734375L446.53124999 268.328125c0-29.109375-23.625-52.734375-52.734375-52.734375L288.32812499 215.59375C259.21874999 215.59375 235.59374999 239.21875 235.59374999 268.328125l0 158.203125C235.59374999 455.640625 259.21874999 479.265625 288.32812499 479.265625zM288.32812499 268.328125l105.46875 0 0 158.203125L288.32812499 426.53125 288.32812499 268.328125zM287.90624999 795.671875l106.3125 0C423.11718749 795.671875 446.53124999 772.2578125 446.53124999 743.359375L446.53124999 584.3125C446.53124999 555.4140625 423.11718749 532 394.21874999 532L287.90624999 532C259.00781249 532 235.59374999 555.4140625 235.59374999 584.3125l0 159.046875C235.59374999 772.2578125 259.00781249 795.671875 287.90624999 795.671875zM394.32421874 584.734375l0.421875 158.203125L288.85546874 743.359375 288.43359374 584.734375 394.32421874 584.734375z" p-id="1795" ></path></svg>
