<?xml version="1.0" standalone="no"?><!DOCTYPE svg PUBLIC "-//W3C//DTD SVG 1.1//EN" "http://www.w3.org/Graphics/SVG/1.1/DTD/svg11.dtd"><svg t="1635157612315" class="icon" viewBox="0 0 1024 1024" version="1.1" xmlns="http://www.w3.org/2000/svg" p-id="2056" width="20" height="20" xmlns:xlink="http://www.w3.org/1999/xlink"><defs><style type="text/css"></style></defs><path d="M705.87733333 957.09866667h-587.09333333c-19.11466667 0-40.96-8.192-51.88266667-24.576-13.65333333-16.384-19.11466667-35.49866667-16.384-54.61333334l10.92266667-79.18933333c2.73066667-24.576 19.11466667-43.69066667 40.96-54.61333333 38.22933333-16.384 106.496-43.69066667 182.95466667-62.80533334-38.22933333-43.69066667-70.99733333-114.688-70.99733334-237.568 0-185.68533333 109.22666667-223.91466667 199.33866667-223.91466666s199.33866667 38.22933333 199.33866667 223.91466666c0 122.88-30.03733333 196.608-68.26666667 237.568 76.45866667 16.384 141.99466667 43.69066667 180.224 62.80533334 21.84533333 10.92266667 38.22933333 30.03733333 40.96 54.61333333l10.92266667 79.18933333c2.73066667 19.11466667-2.73066667 40.96-16.384 54.61333334-16.384 16.384-35.49866667 24.576-54.61333334 24.576z m-294.912-679.936c-101.03466667 0-144.72533333 51.88266667-144.72533333 169.30133333 0 150.18666667 49.152 207.53066667 92.84266667 229.376 10.92266667 5.46133333 16.384 16.384 13.65333333 30.03733333-2.73066667 10.92266667-10.92266667 21.84533333-21.84533333 21.84533334-95.57333333 13.65333333-191.14666667 51.88266667-229.376 68.26666666-5.46133333 2.73066667-8.192 5.46133333-8.192 10.92266667l-10.92266667 79.18933333c0 5.46133333 2.73066667 10.92266667 2.73066667 13.65333334 2.73066667 2.73066667 5.46133333 5.46133333 10.92266666 5.46133333h587.09333334c5.46133333 0 10.92266667-2.73066667 10.92266666-5.46133333 2.73066667-2.73066667 5.46133333-5.46133333 2.73066667-13.65333334l-10.92266667-79.18933333c0-5.46133333-2.73066667-10.92266667-8.192-10.92266667-35.49866667-16.384-131.072-54.61333333-226.64533333-68.26666666-10.92266667-2.73066667-21.84533333-10.92266667-21.84533333-21.84533334s2.73066667-24.576 13.65333333-30.03733333c60.07466667-30.03733333 90.112-109.22666667 90.112-229.376 2.73066667-117.41866667-40.96-169.30133333-141.99466667-169.30133333z" p-id="2057" ></path><path d="M907.94666667 820.56533333h-73.728c-16.384 0-27.30666667-10.92266667-27.30666667-27.30666666s10.92266667-27.30666667 27.30666667-27.30666667h73.728c5.46133333 0 10.92266667-2.73066667 10.92266666-5.46133333 2.73066667-2.73066667 5.46133333-5.46133333 2.73066667-13.65333334l-10.92266667-79.18933333c0-5.46133333-5.46133333-10.92266667-8.192-10.92266667-35.49866667-16.384-131.072-54.61333333-226.64533333-68.26666666-10.92266667-2.73066667-21.84533333-10.92266667-21.84533333-21.84533334s2.73066667-24.576 13.65333333-30.03733333c60.07466667-30.03733333 90.112-109.22666667 90.112-229.376 0-117.41866667-43.69066667-169.30133333-144.72533333-169.30133333-51.88266667 0-90.112 13.65333333-111.95733334 43.69066666-8.192 10.92266667-27.30666667 13.65333333-38.22933333 5.46133334-10.92266667-8.192-13.65333333-27.30666667-5.46133333-38.22933334 32.768-43.69066667 87.38133333-65.536 155.648-65.536 90.112 0 199.33866667 38.22933333 199.33866666 223.91466667 0 122.88-30.03733333 196.608-68.26666666 237.568 76.45866667 16.384 141.99466667 43.69066667 180.224 62.80533333 21.84533333 10.92266667 38.22933333 30.03733333 40.96 54.61333334l10.92266666 79.18933333c2.73066667 19.11466667-2.73066667 40.96-16.384 57.344s-32.768 21.84533333-51.88266666 21.84533333z" p-id="2058" ></path></svg>
