<?xml version="1.0" standalone="no"?><!DOCTYPE svg PUBLIC "-//W3C//DTD SVG 1.1//EN" "http://www.w3.org/Graphics/SVG/1.1/DTD/svg11.dtd"><svg t="1629176681353" class="icon" viewBox="0 0 1024 1024" version="1.1" xmlns="http://www.w3.org/2000/svg" p-id="9106" width="20" height="20" xmlns:xlink="http://www.w3.org/1999/xlink"><defs><style type="text/css"></style></defs><path d="M776.766439 120.632195a99.902439 99.902439 0 0 1 99.902439 99.902439v36.963903a99.902439 99.902439 0 0 1-99.902439 99.902439H402.132293a99.902439 99.902439 0 0 1-99.702634-93.408781H227.303024a49.95122 49.95122 0 0 0-49.826341 46.204878L177.351805 313.943415v129.573463a49.95122 49.95122 0 0 0 46.204878 49.801366l3.746341 0.149854h574.439025a99.902439 99.902439 0 0 1 99.777561 94.907317l0.124878 4.995122v124.878048a99.902439 99.902439 0 0 1-94.907317 99.777561l-4.995122 0.124878h-72.179512a99.902439 99.902439 0 0 1-99.827513 96.231025h-374.634146a99.902439 99.902439 0 0 1-99.902439-99.902439V777.490732a99.902439 99.902439 0 0 1 99.902439-99.902439h374.634146a99.902439 99.902439 0 0 1 99.477854 90.561561H801.742049a49.95122 49.95122 0 0 0 49.826341-46.204878l0.124878-3.746342v-124.878049a49.95122 49.95122 0 0 0-46.204878-49.801365l-3.746341-0.124879H227.303024a99.902439 99.902439 0 0 1-99.777561-94.907317l-0.124878-4.995122V313.943415a99.902439 99.902439 0 0 1 94.907317-99.777561L227.303024 214.040976l75.126635-0.024976A99.902439 99.902439 0 0 1 402.132293 120.632195z m-147.031415 606.932293h-374.634146a49.95122 49.95122 0 0 0-49.951219 49.951219v36.963903a49.95122 49.95122 0 0 0 49.951219 49.951219h374.634146a49.95122 49.95122 0 0 0 49.95122-49.951219V777.490732a49.95122 49.95122 0 0 0-49.95122-49.95122zM776.766439 170.583415H402.132293a49.95122 49.95122 0 0 0-49.95122 49.951219v36.963903a49.95122 49.95122 0 0 0 49.95122 49.951219h374.634146a49.95122 49.95122 0 0 0 49.95122-49.951219V220.534634a49.95122 49.95122 0 0 0-49.95122-49.951219z" p-id="9107"></path><path d="M505.306537 518.443707m-82.419513 0a82.419512 82.419512 0 1 0 164.839025 0 82.419512 82.419512 0 1 0-164.839025 0Z" p-id="9108"></path></svg>
