<?xml version="1.0" standalone="no"?><!DOCTYPE svg PUBLIC "-//W3C//DTD SVG 1.1//EN" "http://www.w3.org/Graphics/SVG/1.1/DTD/svg11.dtd"><svg t="1672887033007" class="icon" viewBox="0 0 1024 1024" version="1.1" xmlns="http://www.w3.org/2000/svg" p-id="3124" width="200" height="200" xmlns:xlink="http://www.w3.org/1999/xlink"><path d="M910.2 244.5H636.8v-90.9c0-11-8.7-19-19.5-19H410c-10.7 0-19.2 8-19.2 19v90.9H113.6c-17.8 0-32 14.6-32 32.2v580.2c0 17.6 14.2 32.4 32 32.4h796.6c18.1 0 32.3-14.9 32.3-32.4V276.7c0-17.6-14.2-32.2-32.3-32.2z m-480.5-71.4h168.7v71.5H429.7v-71.5zM307 298.3h386.4v53.5H307v-68.6 15.1z m571.2 526.6H145.8V309h122.8v62.3c0 10.7 8.5 19.4 19.2 19.4h424.8c10.5 0 19.2-8.7 19.2-19.4V309h146.3v515.9h0.1z m-96.1-258.8H582.8c-11 0-19.7 8.7-19.7 19.5 0 10.9 8.7 19.1 19.7 19.1h199.3c10.8 0 19.7-8.3 19.7-19.1 0.1-10.9-8.9-19.5-19.7-19.5z m0 107.1H582.8c-11 0-19.7 8.3-19.7 19 0 10.8 8.7 19.7 19.7 19.7h199.3c10.8 0 19.7-8.9 19.7-19.7 0.1-10.8-8.9-19-19.7-19z m-219-191.4c0 11 8.7 19.4 19.7 19.4h199.3c10.8 0 19.7-8.4 19.7-19.4 0-10.7-8.9-19-19.7-19H582.8c-11 0-19.7 8.2-19.7 19z m-97.8 175.9c-9.7-9.3-21.1-17.3-33.7-22.4l-4.4-1.8 2.8-3c21.9-22 35.6-52 35.6-85.1 0-33.4-13.7-63.9-35.6-85.8s-52.1-35.4-85.7-35.4c-33.2 0-63.4 13.4-85.3 35.4-21.9 21.9-35.5 52.4-35.5 85.8 0 33.1 13.5 63 35.5 85.1l3 3c-14.4 5.2-27.5 13.4-38.2 24.2-9.2 9.4-17.2 20.9-22.4 33.6-5 12.4-7.8 25.4-7.8 39.9V759c0 11 8.7 19.4 19.2 19.4h263.4c10.8 0 19.2-8.4 19.2-19.4v-27.9c0-14.4-2.7-27.5-7.8-39.9-5-12.7-13-24.1-22.3-33.5zM286.4 486.6c14.7-14.9 35.5-23.5 57.9-23.5 23 0 43.4 8.7 58.3 23.5 15.1 15.1 24.3 35.9 24.3 58.8 0 22.1-9.2 43-24.3 57.6-31.8 32.3-84.2 32.3-116.2 0-15.1-14.6-24.2-35.5-24.2-57.6 0-22.9 9.1-43.7 24.2-58.8zM457 739.5H232.5v-8.4c0-9.2 1.7-17.8 4.6-24.9 3.1-8 8-15.3 14.2-21.3 11.9-11.6 27.9-18.7 45.7-18.7h95.1c9.1 0 17.3 1.6 24.7 5 7.8 3 15.1 7.5 21 13.7 5.9 5.9 10.7 13.3 14.2 21.3 3.2 7.1 5 15.8 5 24.9v8.4z" p-id="3125"></path></svg>